<mxfile host="app.diagrams.net" modified="2021-04-07T15:06:42.553Z" agent="5.0 (Windows)" etag="HyySGiz6foS3444uln5z" version="14.5.8" type="github">
  <diagram id="7fa2uqQx7ctRWMQkteAm" name="Page-1">
    <mxGraphModel dx="1185" dy="636" grid="1" gridSize="10" guides="1" tooltips="1" connect="1" arrows="1" fold="1" page="1" pageScale="1" pageWidth="850" pageHeight="1100" math="0" shadow="0">
      <root>
        <mxCell id="0" />
        <mxCell id="1" parent="0" />
        <mxCell id="YYaCjiFldkufb05xFA6W-1" value="" style="rounded=0;whiteSpace=wrap;html=1;" vertex="1" parent="1">
          <mxGeometry x="320" y="350" width="110" height="50" as="geometry" />
        </mxCell>
      </root>
    </mxGraphModel>
  </diagram>
</mxfile>
